<mxfile host="app.diagrams.net" modified="2023-10-10T19:44:13.398Z" agent="Mozilla/5.0 (X11; Linux x86_64) AppleWebKit/537.36 (KHTML, like Gecko) Chrome/117.0.0.0 Safari/537.36" etag="9vRC3ouy0GUFxfaJz6je" version="22.0.4" type="github">
  <diagram id="C5RBs43oDa-KdzZeNtuy" name="Page-1">
    <mxGraphModel dx="2206" dy="1303" grid="1" gridSize="10" guides="1" tooltips="1" connect="1" arrows="1" fold="1" page="1" pageScale="1" pageWidth="827" pageHeight="1169" math="0" shadow="0">
      <root>
        <mxCell id="WIyWlLk6GJQsqaUBKTNV-0" />
        <mxCell id="WIyWlLk6GJQsqaUBKTNV-1" parent="WIyWlLk6GJQsqaUBKTNV-0" />
        <mxCell id="31jNCPAj2kMUMYNKYg21-3" value="" style="edgeStyle=orthogonalEdgeStyle;rounded=0;orthogonalLoop=1;jettySize=auto;html=1;" parent="WIyWlLk6GJQsqaUBKTNV-1" source="31jNCPAj2kMUMYNKYg21-0" target="31jNCPAj2kMUMYNKYg21-2" edge="1">
          <mxGeometry relative="1" as="geometry" />
        </mxCell>
        <mxCell id="31jNCPAj2kMUMYNKYg21-4" value="" style="edgeStyle=orthogonalEdgeStyle;rounded=0;orthogonalLoop=1;jettySize=auto;html=1;" parent="WIyWlLk6GJQsqaUBKTNV-1" source="31jNCPAj2kMUMYNKYg21-0" target="31jNCPAj2kMUMYNKYg21-2" edge="1">
          <mxGeometry relative="1" as="geometry" />
        </mxCell>
        <mxCell id="31jNCPAj2kMUMYNKYg21-5" style="edgeStyle=orthogonalEdgeStyle;rounded=0;orthogonalLoop=1;jettySize=auto;html=1;" parent="WIyWlLk6GJQsqaUBKTNV-1" source="31jNCPAj2kMUMYNKYg21-0" target="31jNCPAj2kMUMYNKYg21-1" edge="1">
          <mxGeometry relative="1" as="geometry" />
        </mxCell>
        <mxCell id="31jNCPAj2kMUMYNKYg21-0" value="Pokemon Journeys" style="rounded=0;whiteSpace=wrap;html=1;" parent="WIyWlLk6GJQsqaUBKTNV-1" vertex="1">
          <mxGeometry x="40" y="140" width="120" height="60" as="geometry" />
        </mxCell>
        <mxCell id="31jNCPAj2kMUMYNKYg21-139" style="edgeStyle=orthogonalEdgeStyle;rounded=0;orthogonalLoop=1;jettySize=auto;html=1;" edge="1" parent="WIyWlLk6GJQsqaUBKTNV-1" source="31jNCPAj2kMUMYNKYg21-1" target="31jNCPAj2kMUMYNKYg21-137">
          <mxGeometry relative="1" as="geometry" />
        </mxCell>
        <mxCell id="31jNCPAj2kMUMYNKYg21-149" style="edgeStyle=orthogonalEdgeStyle;rounded=0;orthogonalLoop=1;jettySize=auto;html=1;" edge="1" parent="WIyWlLk6GJQsqaUBKTNV-1" source="31jNCPAj2kMUMYNKYg21-1" target="31jNCPAj2kMUMYNKYg21-148">
          <mxGeometry relative="1" as="geometry">
            <Array as="points">
              <mxPoint x="290" y="570" />
            </Array>
          </mxGeometry>
        </mxCell>
        <mxCell id="31jNCPAj2kMUMYNKYg21-1" value="Gameplay" style="rounded=0;whiteSpace=wrap;html=1;" parent="WIyWlLk6GJQsqaUBKTNV-1" vertex="1">
          <mxGeometry x="40" y="540" width="120" height="60" as="geometry" />
        </mxCell>
        <mxCell id="31jNCPAj2kMUMYNKYg21-8" style="edgeStyle=orthogonalEdgeStyle;rounded=0;orthogonalLoop=1;jettySize=auto;html=1;" parent="WIyWlLk6GJQsqaUBKTNV-1" source="31jNCPAj2kMUMYNKYg21-2" target="31jNCPAj2kMUMYNKYg21-7" edge="1">
          <mxGeometry relative="1" as="geometry" />
        </mxCell>
        <mxCell id="31jNCPAj2kMUMYNKYg21-10" style="edgeStyle=orthogonalEdgeStyle;rounded=0;orthogonalLoop=1;jettySize=auto;html=1;entryX=0;entryY=0.5;entryDx=0;entryDy=0;" parent="WIyWlLk6GJQsqaUBKTNV-1" source="31jNCPAj2kMUMYNKYg21-2" target="31jNCPAj2kMUMYNKYg21-6" edge="1">
          <mxGeometry relative="1" as="geometry" />
        </mxCell>
        <mxCell id="31jNCPAj2kMUMYNKYg21-2" value="Renderer" style="rounded=0;whiteSpace=wrap;html=1;" parent="WIyWlLk6GJQsqaUBKTNV-1" vertex="1">
          <mxGeometry x="200" y="80" width="120" height="60" as="geometry" />
        </mxCell>
        <mxCell id="31jNCPAj2kMUMYNKYg21-125" style="edgeStyle=orthogonalEdgeStyle;rounded=0;orthogonalLoop=1;jettySize=auto;html=1;" edge="1" parent="WIyWlLk6GJQsqaUBKTNV-1" source="31jNCPAj2kMUMYNKYg21-6" target="31jNCPAj2kMUMYNKYg21-121">
          <mxGeometry relative="1" as="geometry" />
        </mxCell>
        <mxCell id="31jNCPAj2kMUMYNKYg21-6" value="OpenGL" style="rounded=0;whiteSpace=wrap;html=1;" parent="WIyWlLk6GJQsqaUBKTNV-1" vertex="1">
          <mxGeometry x="460" y="180" width="120" height="60" as="geometry" />
        </mxCell>
        <mxCell id="31jNCPAj2kMUMYNKYg21-124" style="edgeStyle=orthogonalEdgeStyle;rounded=0;orthogonalLoop=1;jettySize=auto;html=1;" edge="1" parent="WIyWlLk6GJQsqaUBKTNV-1" source="31jNCPAj2kMUMYNKYg21-7" target="31jNCPAj2kMUMYNKYg21-121">
          <mxGeometry relative="1" as="geometry" />
        </mxCell>
        <mxCell id="31jNCPAj2kMUMYNKYg21-7" value="Vulkan" style="rounded=0;whiteSpace=wrap;html=1;" parent="WIyWlLk6GJQsqaUBKTNV-1" vertex="1">
          <mxGeometry x="460" y="40" width="120" height="60" as="geometry" />
        </mxCell>
        <mxCell id="31jNCPAj2kMUMYNKYg21-135" style="edgeStyle=orthogonalEdgeStyle;rounded=0;orthogonalLoop=1;jettySize=auto;html=1;exitX=1;exitY=0.25;exitDx=0;exitDy=0;" edge="1" parent="WIyWlLk6GJQsqaUBKTNV-1" source="31jNCPAj2kMUMYNKYg21-121" target="31jNCPAj2kMUMYNKYg21-126">
          <mxGeometry relative="1" as="geometry">
            <Array as="points">
              <mxPoint x="820" y="150" />
            </Array>
          </mxGeometry>
        </mxCell>
        <mxCell id="31jNCPAj2kMUMYNKYg21-136" style="edgeStyle=orthogonalEdgeStyle;rounded=0;orthogonalLoop=1;jettySize=auto;html=1;exitX=0.5;exitY=1;exitDx=0;exitDy=0;" edge="1" parent="WIyWlLk6GJQsqaUBKTNV-1" source="31jNCPAj2kMUMYNKYg21-121" target="31jNCPAj2kMUMYNKYg21-131">
          <mxGeometry relative="1" as="geometry" />
        </mxCell>
        <mxCell id="31jNCPAj2kMUMYNKYg21-147" style="edgeStyle=orthogonalEdgeStyle;rounded=0;orthogonalLoop=1;jettySize=auto;html=1;exitX=1;exitY=0.75;exitDx=0;exitDy=0;entryX=0.5;entryY=0;entryDx=0;entryDy=0;fillColor=#dae8fc;strokeColor=#6c8ebf;" edge="1" parent="WIyWlLk6GJQsqaUBKTNV-1" source="31jNCPAj2kMUMYNKYg21-121" target="31jNCPAj2kMUMYNKYg21-140">
          <mxGeometry relative="1" as="geometry">
            <Array as="points">
              <mxPoint x="900" y="190" />
              <mxPoint x="900" y="500" />
              <mxPoint x="1100" y="500" />
            </Array>
          </mxGeometry>
        </mxCell>
        <mxCell id="31jNCPAj2kMUMYNKYg21-121" value="Render &lt;br&gt;Pipline" style="rounded=0;whiteSpace=wrap;html=1;" vertex="1" parent="WIyWlLk6GJQsqaUBKTNV-1">
          <mxGeometry x="700" y="40" width="120" height="200" as="geometry" />
        </mxCell>
        <mxCell id="31jNCPAj2kMUMYNKYg21-130" style="edgeStyle=orthogonalEdgeStyle;rounded=0;orthogonalLoop=1;jettySize=auto;html=1;" edge="1" parent="WIyWlLk6GJQsqaUBKTNV-1" source="31jNCPAj2kMUMYNKYg21-126" target="31jNCPAj2kMUMYNKYg21-127">
          <mxGeometry relative="1" as="geometry" />
        </mxCell>
        <mxCell id="31jNCPAj2kMUMYNKYg21-126" value="World Rendering 2D" style="rounded=0;whiteSpace=wrap;html=1;" vertex="1" parent="WIyWlLk6GJQsqaUBKTNV-1">
          <mxGeometry x="960" y="280" width="120" height="140" as="geometry" />
        </mxCell>
        <mxCell id="31jNCPAj2kMUMYNKYg21-129" style="edgeStyle=orthogonalEdgeStyle;rounded=0;orthogonalLoop=1;jettySize=auto;html=1;entryX=0.5;entryY=0;entryDx=0;entryDy=0;" edge="1" parent="WIyWlLk6GJQsqaUBKTNV-1" source="31jNCPAj2kMUMYNKYg21-127" target="31jNCPAj2kMUMYNKYg21-128">
          <mxGeometry relative="1" as="geometry" />
        </mxCell>
        <mxCell id="31jNCPAj2kMUMYNKYg21-127" value="Loading&amp;nbsp;&lt;br&gt;World Tiles&lt;br&gt;" style="rounded=0;whiteSpace=wrap;html=1;" vertex="1" parent="WIyWlLk6GJQsqaUBKTNV-1">
          <mxGeometry x="1130" y="340" width="120" height="60" as="geometry" />
        </mxCell>
        <mxCell id="31jNCPAj2kMUMYNKYg21-128" value="Loading&amp;nbsp;&lt;br&gt;Tile Texture&lt;br&gt;" style="rounded=0;whiteSpace=wrap;html=1;" vertex="1" parent="WIyWlLk6GJQsqaUBKTNV-1">
          <mxGeometry x="1300" y="330" width="120" height="60" as="geometry" />
        </mxCell>
        <mxCell id="31jNCPAj2kMUMYNKYg21-133" style="edgeStyle=orthogonalEdgeStyle;rounded=0;orthogonalLoop=1;jettySize=auto;html=1;" edge="1" parent="WIyWlLk6GJQsqaUBKTNV-1" source="31jNCPAj2kMUMYNKYg21-131" target="31jNCPAj2kMUMYNKYg21-132">
          <mxGeometry relative="1" as="geometry" />
        </mxCell>
        <mxCell id="31jNCPAj2kMUMYNKYg21-138" style="edgeStyle=orthogonalEdgeStyle;rounded=0;orthogonalLoop=1;jettySize=auto;html=1;exitX=0;exitY=0.5;exitDx=0;exitDy=0;entryX=0;entryY=0.75;entryDx=0;entryDy=0;" edge="1" parent="WIyWlLk6GJQsqaUBKTNV-1" source="31jNCPAj2kMUMYNKYg21-131" target="31jNCPAj2kMUMYNKYg21-137">
          <mxGeometry relative="1" as="geometry" />
        </mxCell>
        <mxCell id="31jNCPAj2kMUMYNKYg21-131" value="AssetsLoader" style="rounded=0;whiteSpace=wrap;html=1;" vertex="1" parent="WIyWlLk6GJQsqaUBKTNV-1">
          <mxGeometry x="700" y="290" width="120" height="60" as="geometry" />
        </mxCell>
        <mxCell id="31jNCPAj2kMUMYNKYg21-134" style="edgeStyle=orthogonalEdgeStyle;rounded=0;orthogonalLoop=1;jettySize=auto;html=1;entryX=0.5;entryY=1;entryDx=0;entryDy=0;" edge="1" parent="WIyWlLk6GJQsqaUBKTNV-1" source="31jNCPAj2kMUMYNKYg21-132" target="31jNCPAj2kMUMYNKYg21-126">
          <mxGeometry relative="1" as="geometry" />
        </mxCell>
        <mxCell id="31jNCPAj2kMUMYNKYg21-132" value="Map Loader" style="rounded=0;whiteSpace=wrap;html=1;" vertex="1" parent="WIyWlLk6GJQsqaUBKTNV-1">
          <mxGeometry x="700" y="420" width="120" height="60" as="geometry" />
        </mxCell>
        <mxCell id="31jNCPAj2kMUMYNKYg21-153" style="edgeStyle=orthogonalEdgeStyle;rounded=0;orthogonalLoop=1;jettySize=auto;html=1;exitX=0.25;exitY=1;exitDx=0;exitDy=0;" edge="1" parent="WIyWlLk6GJQsqaUBKTNV-1" source="31jNCPAj2kMUMYNKYg21-137" target="31jNCPAj2kMUMYNKYg21-148">
          <mxGeometry relative="1" as="geometry">
            <mxPoint x="330" y="740" as="targetPoint" />
            <Array as="points">
              <mxPoint x="570" y="630" />
              <mxPoint x="520" y="630" />
            </Array>
          </mxGeometry>
        </mxCell>
        <mxCell id="31jNCPAj2kMUMYNKYg21-137" value="Colission Handler" style="rounded=0;whiteSpace=wrap;html=1;" vertex="1" parent="WIyWlLk6GJQsqaUBKTNV-1">
          <mxGeometry x="540" y="420" width="120" height="60" as="geometry" />
        </mxCell>
        <mxCell id="31jNCPAj2kMUMYNKYg21-143" style="edgeStyle=orthogonalEdgeStyle;rounded=0;orthogonalLoop=1;jettySize=auto;html=1;entryX=0.5;entryY=0;entryDx=0;entryDy=0;" edge="1" parent="WIyWlLk6GJQsqaUBKTNV-1" source="31jNCPAj2kMUMYNKYg21-140" target="31jNCPAj2kMUMYNKYg21-141">
          <mxGeometry relative="1" as="geometry" />
        </mxCell>
        <mxCell id="31jNCPAj2kMUMYNKYg21-144" style="edgeStyle=orthogonalEdgeStyle;rounded=0;orthogonalLoop=1;jettySize=auto;html=1;" edge="1" parent="WIyWlLk6GJQsqaUBKTNV-1" source="31jNCPAj2kMUMYNKYg21-140" target="31jNCPAj2kMUMYNKYg21-142">
          <mxGeometry relative="1" as="geometry" />
        </mxCell>
        <mxCell id="31jNCPAj2kMUMYNKYg21-140" value="Player Render&lt;br&gt;" style="rounded=0;whiteSpace=wrap;html=1;" vertex="1" parent="WIyWlLk6GJQsqaUBKTNV-1">
          <mxGeometry x="1040" y="740" width="120" height="60" as="geometry" />
        </mxCell>
        <mxCell id="31jNCPAj2kMUMYNKYg21-145" style="edgeStyle=orthogonalEdgeStyle;rounded=0;orthogonalLoop=1;jettySize=auto;html=1;exitX=1;exitY=0.25;exitDx=0;exitDy=0;entryX=0;entryY=0.25;entryDx=0;entryDy=0;" edge="1" parent="WIyWlLk6GJQsqaUBKTNV-1" source="31jNCPAj2kMUMYNKYg21-141" target="31jNCPAj2kMUMYNKYg21-142">
          <mxGeometry relative="1" as="geometry" />
        </mxCell>
        <mxCell id="31jNCPAj2kMUMYNKYg21-141" value="Player&lt;br&gt;Sprite Loading&lt;br&gt;" style="rounded=0;whiteSpace=wrap;html=1;" vertex="1" parent="WIyWlLk6GJQsqaUBKTNV-1">
          <mxGeometry x="950" y="870" width="120" height="60" as="geometry" />
        </mxCell>
        <mxCell id="31jNCPAj2kMUMYNKYg21-146" style="edgeStyle=orthogonalEdgeStyle;rounded=0;orthogonalLoop=1;jettySize=auto;html=1;exitX=0;exitY=0.75;exitDx=0;exitDy=0;entryX=1;entryY=0.75;entryDx=0;entryDy=0;" edge="1" parent="WIyWlLk6GJQsqaUBKTNV-1" source="31jNCPAj2kMUMYNKYg21-142" target="31jNCPAj2kMUMYNKYg21-141">
          <mxGeometry relative="1" as="geometry" />
        </mxCell>
        <mxCell id="31jNCPAj2kMUMYNKYg21-142" value="Plyer&lt;br&gt;Sprite Animation&lt;br&gt;" style="rounded=0;whiteSpace=wrap;html=1;" vertex="1" parent="WIyWlLk6GJQsqaUBKTNV-1">
          <mxGeometry x="1140" y="870" width="120" height="60" as="geometry" />
        </mxCell>
        <mxCell id="31jNCPAj2kMUMYNKYg21-152" style="edgeStyle=orthogonalEdgeStyle;rounded=0;orthogonalLoop=1;jettySize=auto;html=1;exitX=0.75;exitY=0;exitDx=0;exitDy=0;entryX=0.5;entryY=1;entryDx=0;entryDy=0;" edge="1" parent="WIyWlLk6GJQsqaUBKTNV-1" source="31jNCPAj2kMUMYNKYg21-148" target="31jNCPAj2kMUMYNKYg21-137">
          <mxGeometry relative="1" as="geometry" />
        </mxCell>
        <mxCell id="31jNCPAj2kMUMYNKYg21-155" style="edgeStyle=orthogonalEdgeStyle;rounded=0;orthogonalLoop=1;jettySize=auto;html=1;entryX=0;entryY=0.5;entryDx=0;entryDy=0;" edge="1" parent="WIyWlLk6GJQsqaUBKTNV-1" source="31jNCPAj2kMUMYNKYg21-148" target="31jNCPAj2kMUMYNKYg21-140">
          <mxGeometry relative="1" as="geometry" />
        </mxCell>
        <mxCell id="31jNCPAj2kMUMYNKYg21-148" value="Player Controller" style="rounded=0;whiteSpace=wrap;html=1;" vertex="1" parent="WIyWlLk6GJQsqaUBKTNV-1">
          <mxGeometry x="560" y="740" width="120" height="60" as="geometry" />
        </mxCell>
      </root>
    </mxGraphModel>
  </diagram>
</mxfile>
